<svg width="100" height="100" viewBox="0 0 100 100" fill="none" xmlns="http://www.w3.org/2000/svg">
  <path d="M23.3333 16.6667C23.3333 20.3486 20.3486 23.3333 16.6667 23.3333C12.9848 23.3333 10 20.3486 10 16.6667C10 12.9848 12.9848 10 16.6667 10C20.3486 10 23.3333 12.9848 23.3333 16.6667Z" fill="#FF69B4"/>
  <path d="M43.3333 23.3333C43.3333 27.0152 40.3486 30 36.6667 30C32.9848 30 30 27.0152 30 23.3333C30 19.6514 32.9848 16.6667 36.6667 16.6667C40.3486 16.6667 43.3333 19.6514 43.3333 23.3333Z" fill="#FF69B4"/>
  <path d="M70 23.3333C70 27.0152 67.0152 30 63.3333 30C59.6514 30 56.6667 27.0152 56.6667 23.3333C56.6667 19.6514 59.6514 16.6667 63.3333 16.6667C67.0152 16.6667 70 19.6514 70 23.3333Z" fill="#FF69B4"/>
  <path d="M90 16.6667C90 20.3486 87.0152 23.3333 83.3333 23.3333C79.6514 23.3333 76.6667 20.3486 76.6667 16.6667C76.6667 12.9848 79.6514 10 83.3333 10C87.0152 10 90 12.9848 90 16.6667Z" fill="#FF69B4"/>
  <path d="M53.3333 70C53.3333 70 73.3333 54.1667 73.3333 40.8333C73.3333 33.3333 67.5 27.5 60 27.5C55.6667 27.5 51.8333 29.6667 50 33.0833C48.1667 29.6667 44.3333 27.5 40 27.5C32.5 27.5 26.6667 33.3333 26.6667 40.8333C26.6667 54.1667 46.6667 70 46.6667 70L50 73.3333L53.3333 70Z" fill="#FF69B4"/>
</svg> 