<svg width="100" height="100" viewBox="0 0 100 100" fill="none" xmlns="http://www.w3.org/2000/svg">
  <path d="M23.3333 16.6667C23.3333 20.3486 20.3486 23.3333 16.6667 23.3333C12.9848 23.3333 10 20.3486 10 16.6667C10 12.9848 12.9848 10 16.6667 10C20.3486 10 23.3333 12.9848 23.3333 16.6667Z" fill="#FFB6C1"/>
  <path d="M43.3333 23.3333C43.3333 27.0152 40.3486 30 36.6667 30C32.9848 30 30 27.0152 30 23.3333C30 19.6514 32.9848 16.6667 36.6667 16.6667C40.3486 16.6667 43.3333 19.6514 43.3333 23.3333Z" fill="#FFB6C1"/>
  <path d="M70 23.3333C70 27.0152 67.0152 30 63.3333 30C59.6514 30 56.6667 27.0152 56.6667 23.3333C56.6667 19.6514 59.6514 16.6667 63.3333 16.6667C67.0152 16.6667 70 19.6514 70 23.3333Z" fill="#FFB6C1"/>
  <path d="M90 16.6667C90 20.3486 87.0152 23.3333 83.3333 23.3333C79.6514 23.3333 76.6667 20.3486 76.6667 16.6667C76.6667 12.9848 79.6514 10 83.3333 10C87.0152 10 90 12.9848 90 16.6667Z" fill="#FFB6C1"/>
  <path d="M73.3333 50C73.3333 61.0457 64.3791 70 53.3333 70C42.2876 70 33.3333 61.0457 33.3333 50C33.3333 38.9543 42.2876 30 53.3333 30C64.3791 30 73.3333 38.9543 73.3333 50Z" fill="#FFB6C1"/>
</svg> 