<svg width="100" height="100" viewBox="0 0 100 100" fill="none" xmlns="http://www.w3.org/2000/svg">
  <path d="M50 10L10 40H20V80H80V40H90L50 10Z" fill="#8BC34A"/>
  <path d="M40 60C40 54.4772 44.4772 50 50 50C55.5228 50 60 54.4772 60 60V80H40V60Z" fill="#5D4037"/>
  <path d="M35 45C35 42.2386 37.2386 40 40 40C42.7614 40 45 42.2386 45 45C45 47.7614 42.7614 50 40 50C37.2386 50 35 47.7614 35 45Z" fill="#64B5F6"/>
  <path d="M55 45C55 42.2386 57.2386 40 60 40C62.7614 40 65 42.2386 65 45C65 47.7614 62.7614 50 60 50C57.2386 50 55 47.7614 55 45Z" fill="#64B5F6"/>
</svg> 