<svg width="400" height="300" viewBox="0 0 400 300" fill="none" xmlns="http://www.w3.org/2000/svg">
  <!-- Background -->
  <rect width="400" height="300" fill="#FFF0F5" />
  
  <!-- Grid pattern -->
  <path d="M0 50H400" stroke="#FFD6E7" stroke-width="1" stroke-dasharray="4 4" />
  <path d="M0 100H400" stroke="#FFD6E7" stroke-width="1" stroke-dasharray="4 4" />
  <path d="M0 150H400" stroke="#FFD6E7" stroke-width="1" stroke-dasharray="4 4" />
  <path d="M0 200H400" stroke="#FFD6E7" stroke-width="1" stroke-dasharray="4 4" />
  <path d="M0 250H400" stroke="#FFD6E7" stroke-width="1" stroke-dasharray="4 4" />
  
  <path d="M50 0V300" stroke="#FFD6E7" stroke-width="1" stroke-dasharray="4 4" />
  <path d="M100 0V300" stroke="#FFD6E7" stroke-width="1" stroke-dasharray="4 4" />
  <path d="M150 0V300" stroke="#FFD6E7" stroke-width="1" stroke-dasharray="4 4" />
  <path d="M200 0V300" stroke="#FFD6E7" stroke-width="1" stroke-dasharray="4 4" />
  <path d="M250 0V300" stroke="#FFD6E7" stroke-width="1" stroke-dasharray="4 4" />
  <path d="M300 0V300" stroke="#FFD6E7" stroke-width="1" stroke-dasharray="4 4" />
  <path d="M350 0V300" stroke="#FFD6E7" stroke-width="1" stroke-dasharray="4 4" />
  
  <!-- Cake -->
  <rect x="130" y="150" width="140" height="40" rx="5" fill="#FF8DC7" />
  <rect x="145" y="110" width="110" height="40" rx="5" fill="#FF6BB3" />
  <circle cx="160" cy="110" r="5" fill="#FFCCE5" />
  <circle cx="180" cy="110" r="5" fill="#FFCCE5" />
  <circle cx="200" cy="110" r="5" fill="#FFCCE5" />
  <circle cx="220" cy="110" r="5" fill="#FFCCE5" />
  <circle cx="240" cy="110" r="5" fill="#FFCCE5" />
  
  <!-- Candles -->
  <rect x="160" y="90" width="5" height="20" fill="#FFD54F" />
  <rect x="200" y="85" width="5" height="25" fill="#FFD54F" />
  <rect x="240" y="90" width="5" height="20" fill="#FFD54F" />
  
  <!-- Flames -->
  <circle cx="162.5" cy="85" r="5" fill="#FF9800" />
  <circle cx="202.5" cy="80" r="5" fill="#FF9800" />
  <circle cx="242.5" cy="85" r="5" fill="#FF9800" />
  
  <!-- Stars -->
  <path d="M280 70L285 85L300 85L290 95L295 110L280 100L265 110L270 95L260 85L275 85L280 70Z" fill="#FF4D94" />
  <path d="M120 80L123 90L135 90L125 95L130 105L120 100L110 105L115 95L105 90L115 90L120 80Z" fill="#FF4D94" />
  
  <!-- Text -->
  <text x="200" y="220" font-family="Arial, sans-serif" font-size="20" font-weight="bold" text-anchor="middle" fill="#FF4D94">Hình ảnh khoảnh khắc đặc biệt</text>
  <text x="200" y="245" font-family="Arial, sans-serif" font-size="14" text-anchor="middle" fill="#FF4D94">Đang cập nhật hình ảnh về sự kiện quan trọng</text>
</svg> 