<svg width="100" height="100" viewBox="0 0 100 100" fill="none" xmlns="http://www.w3.org/2000/svg">
  <g filter="url(#filter0_d)">
    <!-- Paw shape -->
    <path d="M23 17C23 21 20 24 16 24C12 24 9 21 9 17C9 13 12 10 16 10C20 10 23 13 23 17Z" fill="#FF86A5"/>
    <path d="M43 24C43 28 40 31 36 31C32 31 29 28 29 24C29 20 32 17 36 17C40 17 43 20 43 24Z" fill="#FF86A5"/>
    <path d="M71 24C71 28 68 31 64 31C60 31 57 28 57 24C57 20 60 17 64 17C68 17 71 20 71 24Z" fill="#FF86A5"/>
    <path d="M91 17C91 21 88 24 84 24C80 24 77 21 77 17C77 13 80 10 84 10C88 10 91 13 91 17Z" fill="#FF86A5"/>
    
    <!-- Heart-shaped center pad -->
    <path d="M68 50C68 62 56 70 50 75C44 70 32 62 32 50C32 42 38 36 45 36C47 36 48.5 36.5 50 38C51.5 36.5 53 36 55 36C62 36 68 42 68 50Z" fill="#FF86A5"/>
  </g>
  
  <!-- Soft glow effect -->
  <defs>
    <filter id="filter0_d" x="0" y="0" width="100" height="100" filterUnits="userSpaceOnUse" color-interpolation-filters="sRGB">
      <feFlood flood-opacity="0" result="BackgroundImageFix"/>
      <feColorMatrix in="SourceAlpha" type="matrix" values="0 0 0 0 0 0 0 0 0 0 0 0 0 0 0 0 0 0 127 0"/>
      <feOffset dy="4"/>
      <feGaussianBlur stdDeviation="4"/>
      <feColorMatrix type="matrix" values="0 0 0 0 1 0 0 0 0 0.527 0 0 0 0 0.647 0 0 0 0.5 0"/>
      <feBlend mode="normal" in2="BackgroundImageFix" result="effect1_dropShadow"/>
      <feBlend mode="normal" in="SourceGraphic" in2="effect1_dropShadow" result="shape"/>
    </filter>
  </defs>
</svg> 